<svg width="14" height="14" viewBox="0 0 14 14" fill="none" xmlns="http://www.w3.org/2000/svg">
<path d="M13.6461 1.73056L12.5689 0.423889C12.3511 0.167222 12.0283 0 11.6667 0H2.33333C1.97167 0 1.64889 0.167222 1.435 0.423889L0.357778 1.73056C0.132222 2.00278 0 2.345 0 2.72222V12.4444C0 13.3039 0.696111 14 1.55556 14H12.4444C13.3039 14 14 13.3039 14 12.4444V2.72222C14 2.345 13.8678 2.00278 13.6461 1.73056ZM7 11.2778L2.72222 7H5.44444V5.44444H8.55556V7H11.2778L7 11.2778ZM1.65278 1.55556L2.28667 0.777778H11.62L12.3472 1.55556H1.65278Z" fill="#669EF2"/>
</svg>
