<svg width="27" height="19" viewBox="0 0 27 19" fill="none" xmlns="http://www.w3.org/2000/svg">
  <path d="M23.3182 4.75H19.6364V0H2.45455C1.09841 0 0 1.06281 0 2.375V15.4375H2.45455C2.45455 17.4028 4.10523 19 6.13636 19C8.1675 19 9.81818 17.4028 9.81818 15.4375H17.1818C17.1818 17.4028 18.8325 19 20.8636 19C22.8948 19 24.5455 17.4028 24.5455 15.4375H27V9.5L23.3182 4.75ZM6.13636 17.2188C5.11773 17.2188 4.29545 16.4231 4.29545 15.4375C4.29545 14.4519 5.11773 13.6562 6.13636 13.6562C7.155 13.6562 7.97727 14.4519 7.97727 15.4375C7.97727 16.4231 7.155 17.2188 6.13636 17.2188ZM22.7045 6.53125L25.1161 9.5H19.6364V6.53125H22.7045ZM20.8636 17.2188C19.845 17.2188 19.0227 16.4231 19.0227 15.4375C19.0227 14.4519 19.845 13.6562 20.8636 13.6562C21.8823 13.6562 22.7045 14.4519 22.7045 15.4375C22.7045 16.4231 21.8823 17.2188 20.8636 17.2188Z" fill="#F36767"/>
</svg>
