<svg width="14" height="15" viewBox="0 0 14 15" fill="none" xmlns="http://www.w3.org/2000/svg">
<path d="M11.3095 11.25H2.2619V9.75H11.3095V11.25ZM11.3095 8.25H2.2619V6.75H11.3095V8.25ZM11.3095 5.25H2.2619V3.75H11.3095V5.25ZM0 15L1.13095 13.875L2.2619 15L3.39286 13.875L4.52381 15L5.65476 13.875L6.78571 15L7.91667 13.875L9.04762 15L10.1786 13.875L11.3095 15L12.4405 13.875L13.5714 15V0L12.4405 1.125L11.3095 0L10.1786 1.125L9.04762 0L7.91667 1.125L6.78571 0L5.65476 1.125L4.52381 0L3.39286 1.125L2.2619 0L1.13095 1.125L0 0V15Z" fill="#669EF2"/>
</svg>
