<svg width="27" height="25" viewBox="0 0 27 25" fill="none" xmlns="http://www.w3.org/2000/svg">
<path d="M13.5 5.55556V0H0V25H27V5.55556H13.5ZM5.4 22.2222H2.7V19.4444H5.4V22.2222ZM5.4 16.6667H2.7V13.8889H5.4V16.6667ZM5.4 11.1111H2.7V8.33333H5.4V11.1111ZM5.4 5.55556H2.7V2.77778H5.4V5.55556ZM10.8 22.2222H8.1V19.4444H10.8V22.2222ZM10.8 16.6667H8.1V13.8889H10.8V16.6667ZM10.8 11.1111H8.1V8.33333H10.8V11.1111ZM10.8 5.55556H8.1V2.77778H10.8V5.55556ZM24.3 22.2222H13.5V19.4444H16.2V16.6667H13.5V13.8889H16.2V11.1111H13.5V8.33333H24.3V22.2222ZM21.6 11.1111H18.9V13.8889H21.6V11.1111ZM21.6 16.6667H18.9V19.4444H21.6V16.6667Z" fill="#F36767"/>
</svg>
