<svg width="10" height="13" viewBox="0 0 10 13" fill="none" xmlns="http://www.w3.org/2000/svg">
<path d="M6.58385 2.4186C7.26708 2.4186 7.82609 1.87442 7.82609 1.2093C7.82609 0.544186 7.26708 0 6.58385 0C5.90062 0 5.34162 0.544186 5.34162 1.2093C5.34162 1.87442 5.90062 2.4186 6.58385 2.4186ZM4.34783 10.8233L4.93789 8.16279L6.27329 9.37209V13H7.51553V8.43488L6.24224 7.19535L6.61491 5.3814C7.42236 6.34884 8.63354 6.95349 10 6.95349V5.74419C8.85093 5.74419 7.85714 5.13953 7.29814 4.26279L6.70807 3.29535C6.49068 2.93256 6.08696 2.72093 5.65217 2.72093C5.49689 2.72093 5.34162 2.75116 5.18634 2.81163L1.92547 4.11163V6.95349H3.1677V4.92791L4.25466 4.50465L3.29193 9.37209L0.248447 8.79767L0 9.97674C0 9.97674 4.34783 10.793 4.34783 10.8233V10.8233Z" fill="white"/>
</svg>
