<svg width="112" height="25" viewBox="0 0 112 25" fill="none" xmlns="http://www.w3.org/2000/svg">
<path d="M14.6229 25H1.25339C0.812382 25 0.487429 24.9074 0.278531 24.7222C0.0928437 24.5139 0 24.1898 0 23.75V1.25C0 0.810186 0.0928437 0.497686 0.278531 0.3125C0.487429 0.104167 0.812382 0 1.25339 0H12.3598C14.6345 0 16.3173 0.439815 17.4082 1.31944C18.4991 2.17593 19.0446 3.50694 19.0446 5.3125V6.97917C19.0446 7.95139 18.8705 8.75 18.5223 9.375C18.1974 9.97685 17.6867 10.4282 16.9904 10.7292C18.4759 10.8681 19.5784 11.3773 20.298 12.2569C21.0175 13.1366 21.3773 14.4213 21.3773 16.1111V19.3056C21.3773 21.25 20.8202 22.6852 19.7061 23.6111C18.6152 24.537 16.9208 25 14.6229 25ZM7.83369 5.90278V9.65278H10.7931C11.2341 9.65278 11.559 9.53704 11.7679 9.30556C12.0001 9.07407 12.1161 8.72685 12.1161 8.26389V7.29167C12.1161 6.8287 12.0001 6.48148 11.7679 6.25C11.559 6.01852 11.2341 5.90278 10.7931 5.90278H7.83369ZM7.83369 15V19.0972H12.3598C12.8008 19.0972 13.1258 18.9815 13.3347 18.75C13.5668 18.5185 13.6828 18.1713 13.6828 17.7083V16.3542C13.6828 15.8912 13.5668 15.5556 13.3347 15.3472C13.1258 15.1157 12.8008 15 12.3598 15H7.83369Z" fill="#F36767"/>
<path d="M44.2032 25H26.4817C26.0407 25 25.7157 24.9074 25.5068 24.7222C25.3211 24.5139 25.2283 24.1898 25.2283 23.75V1.25C25.2283 0.810186 25.3211 0.497686 25.5068 0.3125C25.7157 0.104167 26.0407 0 26.4817 0H31.8782C32.3192 0 32.6326 0.104167 32.8183 0.3125C33.0272 0.497686 33.1316 0.810186 33.1316 1.25V18.4375H37.9015V12.8125C37.9015 12.3727 37.9943 12.0602 38.18 11.875C38.3889 11.6667 38.7138 11.5625 39.1548 11.5625H44.2032C44.6442 11.5625 44.9576 11.6667 45.1433 11.875C45.3522 12.0602 45.4566 12.3727 45.4566 12.8125V23.75C45.4566 24.1898 45.3522 24.5139 45.1433 24.7222C44.9576 24.9074 44.6442 25 44.2032 25Z" fill="#F36767"/>
<path d="M50.1329 25C49.6919 25 49.3669 24.9074 49.158 24.7222C48.9723 24.5139 48.8795 24.1898 48.8795 23.75V19.6181C48.8795 19.1782 48.9723 18.8657 49.158 18.6806C49.3669 18.4722 49.6919 18.3681 50.1329 18.3681H53.5797V6.70139H50.1329C49.6919 6.70139 49.3669 6.6088 49.158 6.42361C48.9723 6.21528 48.8795 5.8912 48.8795 5.45139V1.25C48.8795 0.810186 48.9723 0.497686 49.158 0.3125C49.3669 0.104167 49.6919 0 50.1329 0H64.9647C65.4057 0 65.719 0.104167 65.9047 0.3125C66.1136 0.497686 66.2181 0.810186 66.2181 1.25V5.45139C66.2181 5.8912 66.1136 6.21528 65.9047 6.42361C65.719 6.6088 65.4057 6.70139 64.9647 6.70139H61.5875V18.3681H64.9647C65.4057 18.3681 65.719 18.4722 65.9047 18.6806C66.1136 18.8657 66.2181 19.1782 66.2181 19.6181V23.75C66.2181 24.1898 66.1136 24.5139 65.9047 24.7222C65.719 24.9074 65.4057 25 64.9647 25H50.1329Z" fill="#F36767"/>
<path d="M82.3544 25H76.7141C76.2731 25 75.9482 24.9074 75.7393 24.7222C75.5536 24.5139 75.4607 24.1898 75.4607 23.75V6.70139H70.3427C69.9017 6.70139 69.5768 6.6088 69.3679 6.42361C69.1822 6.21528 69.0893 5.8912 69.0893 5.45139V1.25C69.0893 0.810186 69.1822 0.497686 69.3679 0.3125C69.5768 0.104167 69.9017 0 70.3427 0H88.7258C89.1668 0 89.4801 0.104167 89.6658 0.3125C89.8747 0.497686 89.9792 0.810186 89.9792 1.25V5.45139C89.9792 5.8912 89.8747 6.21528 89.6658 6.42361C89.4801 6.6088 89.1668 6.70139 88.7258 6.70139H83.6078V23.75C83.6078 24.1898 83.5033 24.5139 83.2944 24.7222C83.1087 24.9074 82.7954 25 82.3544 25Z" fill="#F36767"/>
<path d="M110.747 25H93.4777C93.0367 25 92.7117 24.9074 92.5028 24.7222C92.3171 24.5139 92.2243 24.1898 92.2243 23.75V19.0972C92.2243 18.6574 92.2939 18.2755 92.4332 17.9514C92.5724 17.6042 92.793 17.2685 93.0947 16.9444L101.555 6.70139H94.1044C93.6634 6.70139 93.3384 6.6088 93.1295 6.42361C92.9438 6.21528 92.851 5.8912 92.851 5.45139V1.25C92.851 0.810186 92.9438 0.497686 93.1295 0.3125C93.3384 0.104167 93.6634 0 94.1044 0H110.12C110.561 0 110.874 0.104167 111.06 0.3125C111.269 0.497686 111.373 0.810186 111.373 1.25V6.42361C111.373 6.88657 111.304 7.29167 111.164 7.63889C111.025 7.96296 110.805 8.28704 110.503 8.61111L102.425 18.3681H110.747C111.188 18.3681 111.501 18.4722 111.687 18.6806C111.896 18.8657 112 19.1782 112 19.6181V23.75C112 24.1898 111.896 24.5139 111.687 24.7222C111.501 24.9074 111.188 25 110.747 25Z" fill="#F36767"/>
</svg>
