<svg width="15" height="15" viewBox="0 0 15 15" fill="none" xmlns="http://www.w3.org/2000/svg">
<path d="M0.4425 7.185L7.18875 0.43875C7.45875 0.16875 7.83375 0 8.25 0H13.5C14.3288 0 15 0.67125 15 1.5V6.75C15 7.16625 14.8313 7.54125 14.5575 7.81125L7.8075 14.5613C7.5375 14.8313 7.1625 15 6.75 15C6.33375 15 5.95875 14.8313 5.68875 14.5613L0.438749 9.31125C0.168749 9.0375 0 8.6625 0 8.25C0 7.83375 0.16875 7.45875 0.4425 7.185ZM12.375 3.75C12.9975 3.75 13.5 3.2475 13.5 2.625C13.5 2.0025 12.9975 1.5 12.375 1.5C11.7525 1.5 11.25 2.0025 11.25 2.625C11.25 3.2475 11.7525 3.75 12.375 3.75ZM3.5475 9.9525L6.75 13.155L9.9525 9.9525C10.29 9.61125 10.5 9.1425 10.5 8.625C10.5 7.59 9.66 6.75 8.625 6.75C8.1075 6.75 7.635 6.96 7.2975 7.30125L6.75 7.84875L6.2025 7.30125C5.86125 6.96 5.3925 6.75 4.875 6.75C3.84 6.75 3 7.59 3 8.625C3 9.1425 3.21 9.61125 3.5475 9.9525Z" fill="#669EF2"/>
</svg>
