<svg width="11" height="13" viewBox="0 0 11 13" fill="none" xmlns="http://www.w3.org/2000/svg">
<path d="M9.77778 3.09524H8.55556C8.55556 1.38667 7.18667 0 5.5 0C3.81333 0 2.44444 1.38667 2.44444 3.09524H1.22222C0.546944 3.09524 0.00611111 3.64929 0.00611111 4.33333L0 11.7619C0 12.446 0.546944 13 1.22222 13H9.77778C10.4531 13 11 12.446 11 11.7619V4.33333C11 3.64929 10.4531 3.09524 9.77778 3.09524ZM5.5 1.2381C6.51139 1.2381 7.33333 2.07071 7.33333 3.09524H3.66667C3.66667 2.07071 4.48861 1.2381 5.5 1.2381ZM5.5 7.42857C3.81333 7.42857 2.44444 6.0419 2.44444 4.33333H3.66667C3.66667 5.35786 4.48861 6.19048 5.5 6.19048C6.51139 6.19048 7.33333 5.35786 7.33333 4.33333H8.55556C8.55556 6.0419 7.18667 7.42857 5.5 7.42857Z" fill="white"/>
</svg>
