<svg width="25" height="25" viewBox="0 0 25 25" fill="none" xmlns="http://www.w3.org/2000/svg">
<path fill-rule="evenodd" clip-rule="evenodd" d="M0 12.5261C0 19.0561 4.99662 24.419 11.3751 25.0001H13.6772C19.6763 24.4535 24.4531 19.6769 25 13.6779V11.3744C24.4186 4.99626 19.0558 0 12.5261 0C5.60814 0 0 5.60814 0 12.5261ZM19.9082 7.90372C20.4563 7.90372 20.5801 8.18659 20.4563 8.57555C20.2632 9.46696 18.6593 11.8316 18.1625 12.5639C18.0681 12.7031 18.0137 12.7833 18.0165 12.7833C17.822 13.1016 17.7513 13.243 18.0165 13.5966C18.1124 13.7273 18.3157 13.9268 18.548 14.1548C18.7869 14.3893 19.0566 14.6539 19.2718 14.9049C20.0497 15.7889 20.6508 16.5314 20.8099 17.0442C20.9513 17.5569 20.7038 17.8221 20.1734 17.8221H18.3524C17.8698 17.8221 17.6211 17.5449 17.0909 16.9543C16.8636 16.701 16.5846 16.3901 16.2132 16.0187C15.1347 14.9756 14.6573 14.8342 14.3922 14.8342C14.0209 14.8342 13.9148 14.9226 13.9148 15.453V17.0972C13.9148 17.5392 13.7734 17.8044 12.6065 17.8044C10.6794 17.8044 8.54014 16.6375 7.03736 14.4629C4.77435 11.2806 4.15556 8.87611 4.15556 8.39875C4.15556 8.13355 4.24396 7.88604 4.77435 7.88604H6.61305C7.07272 7.88604 7.24952 8.08052 7.42632 8.59323C8.32799 11.1922 9.83077 13.4728 10.4496 13.4728C10.6794 13.4728 10.7855 13.3668 10.7855 12.7833V10.096C10.7418 9.33217 10.4759 8.99936 10.2787 8.75257C10.1565 8.59952 10.0606 8.47955 10.0606 8.31035C10.0606 8.0982 10.2374 7.88604 10.5203 7.88604H13.3844C13.7734 7.88604 13.9148 8.0982 13.9148 8.55787V12.1822C13.9148 12.5712 14.0739 12.7126 14.1977 12.7126C14.4275 12.7126 14.622 12.5712 15.0463 12.1469C16.3546 10.6794 17.2916 8.41643 17.2916 8.41643C17.4154 8.15124 17.6275 7.90372 18.0872 7.90372H19.9082Z" fill="#669EF2"/>
</svg>
