<svg width="29" height="25" viewBox="0 0 29 25" fill="none" xmlns="http://www.w3.org/2000/svg">
<path d="M0.508517 11.9998L7.17576 14.4567L9.77483 22.7207C9.88783 23.2791 10.5659 23.3908 11.0179 23.0558L14.747 20.0405C15.086 19.7055 15.651 19.7055 16.103 20.0405L22.7703 24.8426C23.2223 25.1776 23.9003 24.9543 24.0133 24.3959L28.9855 0.943833C29.0985 0.385451 28.5334 -0.172926 27.9684 0.050427L0.508517 10.548C-0.169506 10.7714 -0.169506 11.7764 0.508517 11.9998ZM9.43583 13.2282L22.5442 5.29922C22.7702 5.18754 22.9963 5.52257 22.7703 5.63425L12.0349 15.5735C11.6959 15.9085 11.3569 16.3552 11.3569 16.9136L11.0179 19.5938C11.0179 19.9288 10.4529 20.0405 10.3398 19.5938L8.98379 14.68C8.64478 14.1217 8.87082 13.4516 9.43583 13.2282Z" fill="#669EF2"/>
</svg>
