<svg width="31" height="25" viewBox="0 0 31 25" fill="none" xmlns="http://www.w3.org/2000/svg">
<path d="M27.3484 3.94197C28.6769 3.15347 29.6709 1.91189 30.1449 0.449048C28.8966 1.18442 27.5307 1.70244 26.1065 1.9807C24.1319 -0.0930951 21.0033 -0.597762 18.469 0.748692C15.9346 2.09515 14.6219 4.95938 15.2644 7.74094C10.151 7.48606 5.38694 5.08801 2.15776 1.14351C0.472513 4.0294 1.33371 7.71855 4.12582 9.57421C3.11617 9.54198 2.1289 9.27058 1.24634 8.78263C1.24634 8.80912 1.24634 8.8356 1.24634 8.86209C1.24693 11.8682 3.38094 14.4577 6.34879 15.0534C5.41228 15.3064 4.42994 15.3436 3.47672 15.1623C4.31137 17.7331 6.69787 19.4943 9.41797 19.5468C7.16511 21.3023 4.38291 22.2543 1.51903 22.2497C1.01141 22.2504 0.504184 22.2214 0 22.1629C2.90822 24.0182 6.29302 25.003 9.74993 24.9996C14.5593 25.0324 19.1813 23.15 22.582 19.7735C25.9827 16.3969 27.8783 11.808 27.8449 7.03323C27.8449 6.75956 27.8384 6.48737 27.8256 6.21664C29.0711 5.32296 30.1461 4.21586 31 2.94736C29.8396 3.458 28.6088 3.79326 27.3484 3.94197Z" fill="#669EF2"/>
</svg>
