<svg width="14" height="13" viewBox="0 0 14 13" fill="none" xmlns="http://www.w3.org/2000/svg">
<path d="M6.40098 11.3656C6.71825 11.1747 7.11508 11.1747 7.43235 11.3656L9.7804 12.7789C10.538 13.2349 11.4712 12.5554 11.2698 11.6943L10.6486 9.03904C10.5639 8.6769 10.6872 8.29766 10.9686 8.05453L13.0358 6.26869C13.7058 5.6899 13.3486 4.59017 12.4664 4.51553L9.74161 4.285C9.3723 4.25376 9.05055 4.02081 8.90558 3.67971L7.83699 1.16544C7.49197 0.353631 6.34136 0.353631 5.99634 1.16544L4.92775 3.67971C4.78278 4.02081 4.46104 4.25376 4.09173 4.285L1.36698 4.51553C0.48477 4.59017 0.127576 5.6899 0.797551 6.2687L2.86473 8.05453C3.14616 8.29766 3.26942 8.6769 3.1847 9.03904L2.56354 11.6943C2.36211 12.5554 3.29531 13.2349 4.05293 12.7789L6.40098 11.3656Z" fill="#A5A5A5"/>
</svg>
